<?xml version="1.0" encoding="utf-8"?>
<!-- Generator: Adobe Illustrator 23.0.0, SVG Export Plug-In . SVG Version: 6.00 Build 0)  -->
<svg version="1.1" id="Layer_1" xmlns="http://www.w3.org/2000/svg" xmlns:xlink="http://www.w3.org/1999/xlink" x="0px" y="0px"
	 viewBox="0 0 3000 2000" style="enable-background:new 0 0 3000 2000;" xml:space="preserve">
<style type="text/css">
	.st0{fill:#E2AA13;}
	.st1{fill:#00FFFF;}
	.st2{fill:#4285F4;}
	.st3{fill:url(#SVGID_1_);}
	.st4{fill:#0365F2;}
	.st5{fill:#B58610;}
	.st6{fill:url(#SVGID_2_);}
	.st7{fill:url(#SVGID_3_);}
	.st8{fill:url(#SVGID_4_);}
	.st9{fill:url(#SVGID_5_);}
	.st10{fill:url(#SVGID_6_);}
	.st11{fill:url(#SVGID_7_);}
	.st12{fill:#0071BC;}
	.st13{fill:url(#SVGID_8_);}
</style>
<g>
	<path class="st0" d="M1249.08,1158.66l-76.22-132.01l-13.78-23.87c0.01-0.01,0.02-0.01,0.04-0.02c0.16-0.08,0.32-0.16,0.48-0.24
		l13.83,23.96l70.63,123.42l0.07,0.13L1249.08,1158.66z"/>
</g>
<g>
	<path class="st1" d="M699.17,626.77c-1.38,0-2.77,0.02-4.15,0.03C696.41,626.79,697.79,626.78,699.17,626.77z"/>
	<path class="st1" d="M695.02,626.8c-1.27,0.01-2.53,0.04-3.8,0.06C692.49,626.84,693.76,626.82,695.02,626.8z"/>
	<path class="st1" d="M691.22,626.86c-1.02,0.02-2.04,0.04-3.06,0.08c-0.08,0-0.16,0-0.24,0c0.08,0,0.16,0,0.24-0.01
		c0.41-0.01,0.82-0.02,1.23-0.03C690,626.89,690.61,626.88,691.22,626.86z"/>
	<path class="st2" d="M687.9,626.95c-0.47,0.02-0.93,0.03-1.4,0.04c0,0,0.01,0,0.01,0C686.97,626.97,687.44,626.96,687.9,626.95z"/>
	<linearGradient id="SVGID_1_" gradientUnits="userSpaceOnUse" x1="984.9969" y1="1723.7458" x2="984.9969" y2="629.8771">
		<stop  offset="0" style="stop-color:#4285F4"/>
		<stop  offset="0.2256" style="stop-color:#3B82F4"/>
		<stop  offset="0.5452" style="stop-color:#2978F3"/>
		<stop  offset="0.9195" style="stop-color:#0B69F2"/>
		<stop  offset="1" style="stop-color:#0365F2"/>
	</linearGradient>
	<path class="st3" d="M1480.45,1559.4c-0.3,0.66-0.6,1.32-0.9,1.98c-3.44,7.55-6.87,15.1-10.3,22.65c-0.01,0.01-0.01,0.02-0.02,0.03
		c0,0.01-0.01,0.02-0.01,0.03c-0.01,0.01-0.01,0.03-0.02,0.04c-0.1,0.19-0.2,0.37-0.3,0.56c-0.25,0.48-0.51,0.95-0.76,1.43
		c-0.01,0.02-0.02,0.04-0.03,0.05c-0.2,0.37-0.4,0.74-0.6,1.1c-0.21,0.4-0.43,0.79-0.65,1.19c-0.43,0.78-0.86,1.55-1.3,2.33
		c-0.38,0.67-0.76,1.34-1.15,2.01c-0.34,0.59-0.68,1.18-1.02,1.76c-0.08,0.14-0.16,0.28-0.24,0.41c-0.36,0.61-0.72,1.22-1.09,1.82
		c-0.45,0.75-0.9,1.49-1.35,2.23c-0.36,0.58-0.71,1.15-1.07,1.73c-0.41,0.66-0.82,1.31-1.24,1.96c-0.34,0.54-0.68,1.07-1.03,1.6
		c-0.26,0.4-0.52,0.8-0.78,1.19c-0.14,0.22-0.28,0.44-0.42,0.65c-0.14,0.22-0.28,0.43-0.43,0.65c-0.28,0.43-0.57,0.86-0.86,1.29
		c-0.22,0.33-0.44,0.66-0.66,0.98c-0.51,0.76-1.02,1.5-1.55,2.25c-0.42,0.61-0.85,1.22-1.28,1.83c-0.58,0.82-1.16,1.64-1.75,2.44
		c-0.22,0.3-0.44,0.6-0.66,0.9c-0.25,0.34-0.5,0.68-0.75,1.02c-0.3,0.4-0.6,0.81-0.9,1.21c-0.52,0.71-1.06,1.41-1.6,2.11
		c-0.29,0.38-0.58,0.76-0.87,1.14c-0.88,1.13-1.76,2.26-2.66,3.38c-0.29,0.36-0.58,0.72-0.87,1.08c-0.57,0.7-1.14,1.4-1.72,2.1
		c-0.35,0.42-0.7,0.85-1.06,1.27c-0.49,0.58-0.98,1.16-1.47,1.74c-0.13,0.16-0.27,0.32-0.41,0.48c-0.5,0.58-1,1.17-1.51,1.75
		c-0.02,0.02-0.03,0.04-0.05,0.06c-0.21,0.24-0.42,0.49-0.64,0.73c-0.07,0.09-0.15,0.18-0.23,0.26c-0.23,0.26-0.46,0.52-0.7,0.78
		c-0.01,0.01-0.02,0.03-0.04,0.04c-0.35,0.4-0.7,0.79-1.06,1.18c-1.3,1.46-2.63,2.9-3.98,4.32c-0.18,0.2-0.37,0.39-0.56,0.59
		c-0.67,0.71-1.35,1.41-2.03,2.11c-0.44,0.45-0.87,0.9-1.31,1.34c-0.44,0.44-0.88,0.89-1.32,1.33c-0.4,0.4-0.8,0.8-1.21,1.2
		c-0.06,0.06-0.12,0.12-0.18,0.18c-0.42,0.41-0.83,0.82-1.25,1.22c-0.63,0.62-1.26,1.22-1.9,1.83c-0.35,0.33-0.7,0.66-1.05,0.99
		c-0.29,0.27-0.58,0.54-0.86,0.81c-0.29,0.27-0.58,0.54-0.87,0.8c-0.58,0.54-1.16,1.07-1.75,1.6c-0.43,0.39-0.86,0.78-1.3,1.17
		c-0.6,0.53-1.19,1.06-1.79,1.58c-0.52,0.46-1.05,0.92-1.58,1.38c-0.43,0.37-0.86,0.74-1.3,1.11c-0.37,0.32-0.74,0.63-1.1,0.94
		c-0.91,0.77-1.83,1.53-2.75,2.28c-0.39,0.32-0.79,0.65-1.18,0.96c-0.93,0.76-1.87,1.51-2.82,2.25c-0.75,0.59-1.51,1.18-2.27,1.76
		c-0.5,0.38-1,0.77-1.5,1.15c-0.01,0.01-0.03,0.02-0.05,0.04c-0.26,0.2-0.52,0.4-0.78,0.59c-0.03,0.03-0.07,0.06-0.11,0.08
		c-0.47,0.36-0.95,0.71-1.42,1.06c0,0-0.01,0.01-0.01,0.01c-0.63,0.46-1.26,0.93-1.9,1.39c-1.32,0.96-2.66,1.92-4.01,2.86
		c-71.72,49.99-156.46,59.7-230.74,34.7c-9.05-3.04-17.95-6.6-26.64-10.67c-13.29-6.21-26.12-13.6-38.33-22.13
		c-19.14-14.8-36.9-31.3-53.05-49.26c-9.32-11.39-17.88-23.75-25.56-37.04l-50.92-88.18l0-0.01l-39.59-68.57L489.54,683.1
		c0.6-0.34,1.2-0.69,1.81-1.03c0,0,0.01-0.01,0.01-0.01c0.04-0.02,0.08-0.05,0.12-0.07c0.26-0.15,0.52-0.29,0.78-0.44
		c49.66-28.19,102.68-45.16,156.09-51.69c-53.19,6.59-105.97,23.54-155.42,51.61c2.02-1.13,4.04-2.24,6.07-3.3
		c-2.03,1.11-4.05,2.23-6.07,3.38c51.74-29.07,109.28-38.5,163.94-30.62c76.08,10.96,146.56,55.45,187.97,127.18l0.16-0.09
		l187.15,324.15l2.18,3.78l223.88,387.76c1.16,2.24,2.37,4.46,3.64,6.66c43.82,75.89,140.54,102.18,216.68,59.18
		c0.45-0.25,0.9-0.51,1.34-0.76c0.06-0.04,0.13-0.07,0.19-0.11L1480.45,1559.4z"/>
	<path class="st2" d="M686.41,626.99c-0.44,0.02-0.87,0.03-1.31,0.05c-0.82,0.03-1.64,0.06-2.46,0.09c-0.08,0-0.15,0.01-0.22,0.01
		c-0.17,0.01-0.34,0.02-0.51,0.02c-0.25,0.01-0.5,0.02-0.76,0.03c-0.72,0.03-1.45,0.07-2.17,0.1c-0.9,0.04-1.79,0.09-2.69,0.14
		c-0.78,0.04-1.55,0.09-2.32,0.14c-0.67,0.04-1.34,0.08-2,0.13c-0.72,0.05-1.45,0.1-2.18,0.15c-1.02,0.07-2.04,0.15-3.06,0.23
		c-1.6,0.12-3.21,0.26-4.81,0.41c-0.13,0.01-0.26,0.02-0.4,0.04c-0.67,0.06-1.34,0.12-2.01,0.19c-0.52,0.05-1.03,0.1-1.55,0.15
		c-0.28,0.03-0.57,0.06-0.86,0.09c-1.72,0.17-3.45,0.36-5.17,0.56c-0.61,0.07-1.22,0.14-1.82,0.21c-3.65,0.44-7.29,0.92-10.93,1.45
		c-1.02,0.15-2.04,0.3-3.06,0.46c-0.97,0.15-1.94,0.3-2.91,0.46c-0.81,0.13-1.61,0.26-2.42,0.4c-0.43,0.07-0.86,0.14-1.29,0.22
		c-0.76,0.13-1.52,0.26-2.28,0.4c-0.29,0.05-0.58,0.1-0.88,0.16c-1.93,0.34-3.86,0.7-5.79,1.08c-0.82,0.16-1.65,0.32-2.47,0.48
		c-0.3,0.06-0.6,0.12-0.9,0.18c-0.8,0.16-1.6,0.32-2.4,0.49c-1.02,0.21-2.03,0.42-3.04,0.64c-0.93,0.2-1.86,0.4-2.78,0.61
		c-1.23,0.27-2.45,0.55-3.67,0.84c-0.89,0.2-1.77,0.42-2.66,0.63c-0.96,0.22-1.91,0.46-2.87,0.7c-1.23,0.3-2.46,0.61-3.69,0.93
		c-0.63,0.16-1.27,0.32-1.9,0.5c-0.36,0.09-0.71,0.18-1.06,0.28c-0.62,0.16-1.24,0.32-1.86,0.5c-0.35,0.09-0.7,0.18-1.04,0.28
		c-0.9,0.24-1.81,0.49-2.71,0.75c-0.72,0.2-1.44,0.4-2.15,0.61c-0.16,0.04-0.31,0.08-0.46,0.13c-0.21,0.06-0.42,0.12-0.63,0.18
		c-0.27,0.07-0.53,0.15-0.8,0.23c-0.59,0.17-1.19,0.34-1.78,0.52c-0.12,0.03-0.24,0.07-0.36,0.1c-0.78,0.23-1.55,0.46-2.33,0.7
		c-0.07,0.02-0.15,0.04-0.22,0.07c-0.2,0.06-0.41,0.12-0.61,0.18c-0.59,0.18-1.18,0.36-1.77,0.54c-0.42,0.13-0.84,0.26-1.26,0.39
		c-0.89,0.28-1.78,0.56-2.67,0.85c-1,0.32-2,0.64-3,0.97c-0.96,0.31-1.91,0.63-2.86,0.95c-0.04,0.01-0.09,0.03-0.13,0.04
		c-0.04,0.01-0.08,0.03-0.12,0.04c-0.12,0.04-0.25,0.08-0.37,0.13c-0.66,0.22-1.33,0.45-2,0.68c-0.23,0.08-0.46,0.16-0.7,0.24
		c-0.9,0.31-1.81,0.62-2.71,0.95c-0.05,0.02-0.1,0.03-0.14,0.05c-0.06,0.02-0.13,0.04-0.19,0.07c-0.6,0.21-1.2,0.42-1.8,0.64
		c-2.57,0.92-5.14,1.88-7.7,2.86c-0.24,0.09-0.48,0.18-0.71,0.27c-1.12,0.43-2.24,0.86-3.35,1.3c-0.61,0.24-1.22,0.48-1.83,0.72
		c-1.44,0.58-2.89,1.16-4.33,1.76c-0.3,0.12-0.6,0.25-0.9,0.38c-0.18,0.07-0.36,0.15-0.54,0.22c-0.71,0.29-1.41,0.59-2.12,0.89
		c-0.63,0.26-1.26,0.53-1.89,0.8c-0.6,0.26-1.2,0.52-1.8,0.78c-0.92,0.4-1.83,0.8-2.74,1.2c-0.84,0.37-1.69,0.75-2.53,1.13
		c-0.88,0.4-1.77,0.8-2.65,1.21c-0.09,0.04-0.18,0.08-0.27,0.12c-0.97,0.45-1.95,0.9-2.92,1.36c-0.62,0.29-1.24,0.58-1.86,0.88
		c-0.57,0.27-1.14,0.54-1.71,0.82c-3.36,1.62-6.71,3.28-10.04,5c-0.64,0.32-1.28,0.65-1.91,0.98c-1.38,0.72-2.76,1.44-4.14,2.18
		c-0.32,0.17-0.65,0.35-0.97,0.52c-0.82,0.44-1.64,0.89-2.46,1.34c-0.02,0.01-0.04,0.02-0.06,0.03c-2.03,1.07-4.06,2.17-6.07,3.3
		c49.46-28.07,102.24-45.02,155.42-51.61c0.5-0.06,1-0.12,1.49-0.18c0.4-0.05,0.8-0.1,1.2-0.14c0.68-0.08,1.37-0.16,2.06-0.23
		c0.22-0.02,0.44-0.05,0.66-0.07c0.25-0.02,0.49-0.05,0.74-0.08c0.22-0.02,0.43-0.05,0.65-0.07c0.22-0.03,0.44-0.05,0.66-0.07
		c0.14-0.02,0.28-0.03,0.42-0.04c0.24-0.02,0.49-0.05,0.73-0.07c0.04,0,0.09-0.01,0.14-0.01c0.29-0.03,0.57-0.06,0.86-0.09
		c0.21-0.02,0.42-0.04,0.62-0.06c0,0,0,0,0.01,0h0c0.03,0,0.06,0,0.09-0.01c0.06,0,0.11-0.01,0.17-0.02
		c0.14-0.02,0.28-0.03,0.43-0.04c0.15-0.02,0.3-0.03,0.46-0.04c0.9-0.08,1.8-0.17,2.69-0.25c0.82-0.07,1.64-0.14,2.45-0.2
		c0.56-0.05,1.12-0.09,1.68-0.14c0.22-0.02,0.44-0.04,0.66-0.05c0.38-0.03,0.76-0.06,1.13-0.08c0.09-0.01,0.18-0.01,0.28-0.02
		c0.32-0.02,0.64-0.05,0.96-0.07c0.07,0,0.14-0.01,0.21-0.02c0.15-0.01,0.3-0.02,0.45-0.03h0c0.4-0.02,0.79-0.05,1.19-0.08
		c0.12-0.01,0.24-0.02,0.36-0.02h0c0.77-0.05,1.54-0.1,2.3-0.14c0.29-0.02,0.58-0.04,0.86-0.05c0.04,0,0.08,0,0.12-0.01
		c0.02,0,0.04,0,0.06,0c0.08,0,0.15-0.01,0.22-0.01c0.07,0,0.14-0.01,0.21-0.01c0.1,0,0.19-0.01,0.28-0.02h0.02
		c0.02,0,0.03,0,0.04,0c0.12-0.01,0.25-0.01,0.37-0.02c0.05,0,0.1,0,0.15-0.01c0.12-0.01,0.23-0.01,0.34-0.02h0.04
		c0.62-0.04,1.24-0.07,1.86-0.1c0.01,0,0.02,0,0.03,0c0.05-0.01,0.1-0.01,0.15-0.01c0.13-0.01,0.27-0.01,0.4-0.02
		c0.03,0,0.06,0,0.1,0c0.1,0,0.2-0.01,0.3-0.01c0.38-0.02,0.77-0.04,1.15-0.05c0,0,0,0,0,0c0,0,0,0,0,0c0,0,0,0,0,0
		c0.07,0,0.14-0.01,0.21-0.01c0.03,0,0.06,0,0.08,0h0.06c0,0,0,0,0,0c0,0,0,0,0.01,0c0,0,0,0,0.01,0c0,0,0,0,0.01,0h0.03
		c0.03,0,0.06,0,0.08,0h0.04c0,0,0,0,0,0c0,0,0.01,0,0.02,0c0,0,0.01,0,0.02,0h0c0,0,0.01,0,0.01,0h0.04c0,0,0,0,0.01,0
		c0.01,0,0.02,0,0.02,0c0.01,0,0.02,0,0.03,0h0.04c0,0,0.01,0,0.01,0c0,0,0.01,0,0.01,0h0.03c0,0,0.01,0,0.01,0h0.02c0,0,0,0,0.01,0
		c0,0,0,0,0,0c0,0,0,0,0,0c0,0,0,0,0.01,0h0.05c0,0,0.01,0,0.02,0c0.06,0,0.11,0,0.17,0c0.02,0,0.04,0,0.05,0c0.04,0,0.07,0,0.1,0
		c0.2-0.01,0.39-0.02,0.58-0.02c0.47-0.02,0.94-0.04,1.42-0.06c0.35-0.01,0.69-0.02,1.04-0.03c0.18-0.01,0.36-0.01,0.54-0.02
		C685.9,627.01,686.15,627,686.41,626.99z"/>
</g>
<g>
	<path class="st4" d="M699.83,626.77c1.41,0,2.83,0.01,4.24,0.03C702.66,626.79,701.24,626.77,699.83,626.77z"/>
	<path class="st4" d="M704.07,626.8c1.2,0.01,2.4,0.03,3.59,0.06C706.47,626.84,705.27,626.82,704.07,626.8z"/>
	<path class="st4" d="M1249.08,1158.66l-76.22-132.01l-13.78-23.87l-95.8-165.94C987.01,704.72,849.8,629.75,707.67,626.86
		c12.69,0.23,25.34,1.03,37.92,2.41c0.88,0.1,1.76,0.2,2.64,0.3c0.76,0.09,1.53,0.18,2.29,0.27
		c126.63,15.37,244.74,88.02,313.43,206.99l95.66,165.68l13.83,23.96l70.63,123.42l0.07,0.13L1249.08,1158.66z"/>
</g>
<g>
	<path class="st5" d="M1173.43,1026.47"/>
	<path class="st5" d="M1249.08,1158.66l-76.22-132.01c0.01,0,0.02-0.01,0.04-0.01c0.18-0.05,0.36-0.11,0.54-0.16l70.63,123.42
		l0.07,0.13L1249.08,1158.66z"/>
	<path class="st5" d="M1480.04,1558.7c-0.06,0.04-0.13,0.08-0.19,0.11c-0.44,0.26-0.89,0.51-1.34,0.76l-0.03-0.06
		c0.51-0.29,1.02-0.58,1.53-0.87L1480.04,1558.7z"/>
</g>
<g id="XMLID_13_">
	<g>
		<linearGradient id="SVGID_2_" gradientUnits="userSpaceOnUse" x1="1834.4049" y1="1731.097" x2="1834.4049" y2="239.893">
			<stop  offset="0" style="stop-color:#8E660E"/>
			<stop  offset="0.1876" style="stop-color:#946B0E"/>
			<stop  offset="0.4426" style="stop-color:#A6790F"/>
			<stop  offset="0.7348" style="stop-color:#C29011"/>
			<stop  offset="1" style="stop-color:#E2AA13"/>
		</linearGradient>
		<path class="st6" d="M2159.25,296.09c-157.81,214.42-315.63,428.85-473.44,643.28c67.03,18.18,134.05,36.37,201.08,54.56
			c-53.27,92.69-106.54,185.38-159.8,278.08c-31.82,55.38-63.65,110.76-95.48,166.14c-3.07,5.35-6.14,10.7-9.22,16.05
			c-28.98,50.43-57.96,100.86-86.95,151.3c-3.73,6.49-7.46,12.99-11.2,19.48c-3.49,5.2-7.59,10.63-12.4,16.12
			c-9.85,11.24-19.82,19.43-28,25.2l0.04,0.05c-58.37,40.81-129.41,64.75-206.04,64.75c-42.2,0-82.7-7.26-120.32-20.6
			c74.29,25,159.03,15.29,230.74-34.7c1.35-0.94,2.69-1.89,4.01-2.86c0.64-0.46,1.27-0.93,1.9-1.39c0,0,0.01-0.01,0.01-0.01
			c0.48-0.35,0.95-0.7,1.42-1.06c0.04-0.03,0.08-0.05,0.11-0.08c0.26-0.19,0.52-0.39,0.78-0.59c0.02-0.01,0.04-0.02,0.05-0.04
			c0.5-0.38,1.01-0.76,1.5-1.15c0.76-0.58,1.52-1.17,2.27-1.76c0.95-0.74,1.89-1.49,2.82-2.25c0.4-0.32,0.79-0.64,1.18-0.96
			c0.92-0.75,1.84-1.52,2.75-2.28c0.37-0.31,0.74-0.62,1.1-0.94c0.44-0.37,0.87-0.74,1.3-1.11c0.53-0.46,1.06-0.92,1.58-1.38
			c0.6-0.52,1.2-1.05,1.79-1.58c0.44-0.39,0.87-0.78,1.3-1.17c0.59-0.53,1.17-1.06,1.75-1.6c0.29-0.26,0.58-0.53,0.87-0.8
			c0.29-0.27,0.58-0.54,0.86-0.81c0.35-0.33,0.7-0.66,1.05-0.99c0.64-0.6,1.27-1.21,1.9-1.83c0.42-0.4,0.84-0.81,1.25-1.22
			c0.06-0.06,0.12-0.12,0.18-0.18c0.41-0.4,0.81-0.8,1.21-1.2c0.44-0.44,0.88-0.88,1.32-1.33c0.44-0.44,0.88-0.89,1.31-1.34
			c0.68-0.7,1.36-1.4,2.03-2.11c0.19-0.2,0.38-0.39,0.56-0.59c1.35-1.42,2.68-2.86,3.98-4.32c0.36-0.39,0.71-0.78,1.06-1.18
			c0.02-0.01,0.03-0.03,0.04-0.04c0.24-0.26,0.46-0.52,0.7-0.78c0.08-0.09,0.16-0.18,0.23-0.26c0.22-0.24,0.43-0.49,0.64-0.73
			c0.02-0.02,0.04-0.04,0.05-0.06c0.51-0.58,1.02-1.16,1.51-1.75c0.14-0.16,0.28-0.32,0.41-0.48c0.5-0.58,0.98-1.16,1.47-1.74
			c0.36-0.42,0.71-0.84,1.06-1.27c0.58-0.7,1.15-1.4,1.72-2.1c0.29-0.36,0.58-0.72,0.87-1.08c0.9-1.12,1.79-2.25,2.66-3.38
			c0.29-0.38,0.58-0.76,0.87-1.14c0.54-0.7,1.07-1.4,1.6-2.11c0.3-0.4,0.6-0.8,0.9-1.21c0.25-0.34,0.5-0.68,0.75-1.02
			c0.22-0.3,0.44-0.6,0.66-0.9c0.59-0.81,1.18-1.62,1.75-2.44c0.43-0.61,0.86-1.22,1.28-1.83c0.52-0.75,1.04-1.5,1.55-2.25
			c0.22-0.33,0.45-0.65,0.66-0.98c0.29-0.43,0.58-0.86,0.86-1.29c0.14-0.22,0.29-0.43,0.43-0.65c0.14-0.21,0.29-0.43,0.42-0.65
			c0.26-0.4,0.52-0.79,0.78-1.19c0.34-0.53,0.69-1.06,1.03-1.6c0.42-0.65,0.83-1.31,1.24-1.96c0.36-0.57,0.72-1.15,1.07-1.73
			c0.46-0.74,0.9-1.48,1.35-2.23c0.37-0.6,0.73-1.22,1.09-1.82c0.08-0.14,0.16-0.27,0.24-0.41c0.34-0.58,0.69-1.17,1.02-1.76
			c0.39-0.67,0.77-1.34,1.15-2.01c0.44-0.78,0.87-1.55,1.3-2.33c0.22-0.4,0.44-0.79,0.65-1.19c0.2-0.37,0.4-0.74,0.6-1.1
			c0.01-0.01,0.02-0.03,0.03-0.05c0.26-0.48,0.51-0.95,0.76-1.43c0.1-0.19,0.2-0.37,0.3-0.56c0.01-0.01,0.01-0.03,0.02-0.04
			c0-0.01,0.01-0.02,0.01-0.03c0-0.01,0.01-0.02,0.02-0.03c3.43-7.55,6.87-15.1,10.3-22.65c0.3-0.66,0.6-1.32,0.9-1.98
			c25.14-55.27,50.28-110.54,75.42-165.81c3.21-7.06,6.43-14.13,9.64-21.2c35.13-77.23,70.26-154.46,105.39-231.69
			c16.54-36.36,33.08-72.72,49.62-109.08c-54.55-21.67-109.1-43.34-163.65-65.02c157.13-242.24,314.26-484.47,471.38-726.71
			c161.01,21.5,322.02,42.98,483.04,64.48C2393.94,301.61,2276.6,298.85,2159.25,296.09z"/>
	</g>
</g>
<g id="XMLID_12_">
	<g>
		<path class="st0" d="M1535.45,1605.5c-2.76,5.7-6.41,12.36-11.2,19.48C1527.98,1618.48,1531.71,1611.99,1535.45,1605.5
			L1535.45,1605.5z"/>
	</g>
</g>
<g>
	<path class="st1" d="M651.04,629.55c1.37-0.16,2.74-0.31,4.1-0.45C653.78,629.25,652.41,629.39,651.04,629.55z"/>
	<path class="st0" d="M659.72,628.64c0.08-0.01,0.16-0.01,0.24-0.02c-0.46,0.04-0.93,0.08-1.39,0.13
		C658.96,628.71,659.34,628.68,659.72,628.64z"/>
	<linearGradient id="SVGID_3_" gradientUnits="userSpaceOnUse" x1="1027.463" y1="1580.14" x2="1027.463" y2="626.697">
		<stop  offset="0" style="stop-color:#0365F2"/>
		<stop  offset="0.2256" style="stop-color:#0A68F2"/>
		<stop  offset="0.5452" style="stop-color:#1C72F3"/>
		<stop  offset="0.9195" style="stop-color:#3A81F4"/>
		<stop  offset="1" style="stop-color:#4285F4"/>
	</linearGradient>
	<path class="st7" d="M1470.25,1441.9c-32.87,0-62.03-15.86-80.26-40.34l-11.61-20.11l-204.94-354.97l70.63,123.42l0.07,0.13
		l4.94,8.64l-76.22-132.01l-13.78-23.87l-95.8-165.94C987.01,704.72,849.8,629.75,707.67,626.86c12.69,0.23,25.34,1.03,37.92,2.41
		c-15.16-1.69-30.44-2.55-45.76-2.58h-0.66c-12.24,0.02-24.5,0.58-36.76,1.7c0.82-0.07,1.64-0.14,2.45-0.2
		c0.56-0.05,1.12-0.1,1.68-0.14c0.22-0.02,0.44-0.04,0.66-0.05c0.38-0.03,0.76-0.06,1.13-0.08c0.09-0.01,0.18-0.01,0.28-0.02
		c0.32-0.02,0.64-0.05,0.96-0.07c0.07,0,0.14-0.01,0.21-0.02c0.15-0.01,0.3-0.02,0.45-0.03h0c0.02,0,0.03,0,0.04,0
		c0.24-0.02,0.48-0.04,0.72-0.05c0.14-0.01,0.28-0.02,0.42-0.02c0.12-0.01,0.24-0.02,0.36-0.02h0c0.77-0.05,1.54-0.1,2.3-0.14
		c0.29-0.02,0.58-0.04,0.86-0.05c0.01,0,0.02,0,0.03,0c0.03,0,0.06,0,0.08,0h0.02c0.01,0,0.03,0,0.04,0h0
		c0.08,0,0.15-0.01,0.22-0.01c0.07,0,0.14-0.01,0.21-0.01c0.1-0.01,0.19-0.02,0.28-0.02h0.03c0.01,0,0.02,0,0.02,0
		c0,0,0.01,0,0.02,0h0c0.02,0,0.04,0,0.07,0c0.1,0,0.2-0.01,0.3-0.02c0.05,0,0.1,0,0.15-0.01c0.12-0.01,0.23-0.01,0.34-0.02h0.04
		c0.62-0.04,1.24-0.07,1.86-0.1c0.01,0,0.02,0,0.03,0c0.05-0.01,0.1-0.01,0.15-0.01c0.13-0.01,0.27-0.01,0.4-0.02
		c0.03,0,0.06,0,0.1,0c0.1,0,0.2-0.01,0.3-0.01c0.38-0.02,0.77-0.04,1.15-0.05h0v0c0,0,0,0,0,0v0h0.03
		c0.09-0.01,0.18-0.01,0.27-0.01c0.02,0,0.03,0,0.05,0h0.02v0c0,0,0,0,0,0v0h0c0,0,0,0,0.01,0c0,0,0,0,0,0h0.05
		c0.01,0,0.01,0,0.02,0c0,0,0,0,0.01,0c0,0,0,0,0.01,0h0.08c0,0,0,0,0,0v0c0,0,0,0,0.01,0c0,0,0,0,0,0v0h0c0,0,0,0,0,0v0
		c0,0,0,0,0.01,0v0h0c0,0,0,0,0,0v0h0.05c0,0,0,0,0,0c0,0,0,0,0,0v0c0,0,0,0,0.01,0v0c0,0,0,0,0.01,0l0,0h0c0,0,0,0,0.01,0v0h0.06
		c0,0,0,0,0.01,0c0,0,0,0,0,0s0,0,0,0h0v0c0,0,0,0,0,0h0.02c0,0,0,0,0.01,0h0.04c0,0,0,0,0,0h0.01v0c0,0,0,0,0,0v0h0
		c0.01,0,0.02,0,0.04,0c0.01,0,0.01,0,0.02,0c0,0,0.01,0,0.01,0c0.03,0,0.06,0,0.09,0c0,0,0.01,0,0.01,0c0.02,0,0.05,0,0.07,0h0.05
		c0.04,0,0.07,0,0.1,0c0.02,0,0.05,0,0.07,0c0.02,0,0.05,0,0.07,0c0.03,0,0.06,0,0.09,0c0.02,0,0.05,0,0.07,0
		c0.31-0.01,0.62-0.02,0.94-0.04h0.07c0.08,0,0.16-0.01,0.24-0.01h0.02c0.01,0,0.02,0,0.03,0c0.01,0,0.02,0,0.02,0
		c0.02,0,0.03,0,0.05,0h0c0.04,0,0.08,0,0.12,0c0.05,0,0.1,0,0.15,0c0,0,0,0,0,0c0.12-0.01,0.24-0.01,0.36-0.01
		c0.02,0,0.04,0,0.06,0c0.2-0.01,0.4-0.01,0.59-0.02c0.06,0,0.12,0,0.17,0c0.05,0,0.11,0,0.16,0c0.01,0,0.02,0,0.03,0h0.06
		c0.06,0,0.13,0,0.19,0c0.11,0,0.22-0.01,0.33-0.01c0,0,0,0,0,0c0.05,0,0.1,0,0.15,0h0.03c0,0,0,0,0,0h0.1c-0.01,0-0.01,0-0.02,0
		c0,0,0,0-0.01,0c-0.02,0-0.03,0-0.04,0h-0.04c-0.35,0.02-0.7,0.03-1.05,0.04c-0.82,0.03-1.64,0.06-2.46,0.09
		c-0.08,0-0.15,0.01-0.22,0.01c-0.17,0.01-0.34,0.02-0.51,0.02c-0.25,0.01-0.5,0.02-0.76,0.03c-0.72,0.03-1.45,0.07-2.17,0.1
		c-0.9,0.04-1.79,0.09-2.69,0.14c-0.78,0.04-1.55,0.09-2.32,0.14c-0.67,0.04-1.34,0.08-2,0.13c-0.72,0.05-1.45,0.1-2.18,0.15
		c-1.02,0.07-2.04,0.15-3.06,0.23c-1.6,0.12-3.21,0.26-4.81,0.41c-0.13,0.01-0.26,0.02-0.4,0.04c-0.67,0.06-1.34,0.12-2.01,0.19
		c-0.52,0.05-1.03,0.1-1.55,0.15c-0.28,0.03-0.57,0.06-0.86,0.09c-1.72,0.17-3.45,0.36-5.17,0.56c-0.61,0.07-1.21,0.14-1.82,0.21
		c-3.65,0.44-7.29,0.92-10.93,1.45c-1.02,0.15-2.04,0.3-3.06,0.46c-0.97,0.15-1.94,0.3-2.91,0.46c-0.81,0.13-1.61,0.26-2.42,0.4
		c-0.43,0.07-0.86,0.14-1.29,0.22c-0.76,0.13-1.52,0.26-2.28,0.4c-0.29,0.05-0.58,0.1-0.88,0.16c-1.93,0.34-3.86,0.7-5.79,1.08
		c-0.82,0.16-1.65,0.32-2.47,0.48c-0.3,0.06-0.6,0.12-0.9,0.18c-0.8,0.16-1.6,0.32-2.4,0.49c-1.02,0.21-2.03,0.42-3.04,0.64
		c-0.93,0.2-1.86,0.4-2.78,0.61c-1.23,0.27-2.45,0.55-3.67,0.84c-0.89,0.2-1.77,0.42-2.66,0.63c-0.96,0.23-1.91,0.46-2.87,0.7
		c-1.23,0.3-2.46,0.61-3.69,0.93c-0.63,0.16-1.27,0.33-1.9,0.5c-0.36,0.09-0.71,0.18-1.06,0.28c-0.62,0.16-1.24,0.33-1.86,0.5
		c-0.35,0.09-0.7,0.18-1.04,0.28c-0.9,0.24-1.81,0.5-2.71,0.75c-0.72,0.2-1.44,0.4-2.15,0.61c-0.16,0.04-0.31,0.08-0.46,0.13
		c-0.21,0.06-0.42,0.12-0.63,0.18c-0.27,0.07-0.53,0.15-0.8,0.23c-0.59,0.17-1.19,0.34-1.78,0.52c-0.12,0.03-0.24,0.07-0.36,0.1
		c-0.78,0.23-1.55,0.46-2.33,0.7c-0.07,0.02-0.15,0.04-0.22,0.07c-0.2,0.06-0.41,0.12-0.61,0.18c-0.59,0.18-1.18,0.36-1.77,0.54
		c-0.42,0.13-0.84,0.26-1.26,0.39c-0.89,0.28-1.78,0.56-2.67,0.85c-1,0.32-2,0.64-3,0.97c-0.96,0.31-1.91,0.63-2.86,0.95
		c-0.04,0.01-0.09,0.03-0.13,0.04c-0.04,0.01-0.08,0.03-0.12,0.04c-0.12,0.04-0.25,0.08-0.37,0.13c-0.66,0.22-1.33,0.45-2,0.68
		c-0.23,0.08-0.46,0.16-0.7,0.24c-0.9,0.31-1.81,0.63-2.71,0.95c-0.05,0.02-0.1,0.03-0.14,0.05c-0.06,0.02-0.13,0.04-0.19,0.07
		c-0.6,0.21-1.2,0.42-1.8,0.64c-2.57,0.92-5.14,1.88-7.7,2.86c-0.24,0.09-0.48,0.18-0.71,0.27c-1.12,0.43-2.24,0.86-3.35,1.3
		c-0.61,0.24-1.22,0.48-1.83,0.72c-1.44,0.58-2.89,1.16-4.33,1.76c-0.3,0.12-0.6,0.25-0.9,0.38c-0.18,0.07-0.36,0.15-0.54,0.22
		c-0.71,0.29-1.41,0.59-2.12,0.89c-0.63,0.26-1.26,0.53-1.89,0.8c-0.6,0.26-1.2,0.52-1.8,0.78c-0.92,0.4-1.83,0.8-2.74,1.2
		c-0.84,0.38-1.69,0.75-2.53,1.13c-0.88,0.4-1.77,0.8-2.65,1.21c-0.09,0.04-0.18,0.08-0.27,0.12c-0.97,0.45-1.95,0.9-2.92,1.36
		c-0.62,0.29-1.24,0.58-1.86,0.88c-0.57,0.27-1.14,0.54-1.71,0.82c-3.36,1.62-6.71,3.28-10.04,5c-0.64,0.32-1.28,0.65-1.91,0.98
		c-1.38,0.72-2.76,1.44-4.14,2.18c-0.32,0.17-0.65,0.35-0.97,0.52c-0.82,0.44-1.64,0.89-2.46,1.34
		c50.13-26.45,105.3-34.85,157.81-27.28c76.08,10.96,146.56,55.45,187.97,127.18l0.16-0.09l187.15,324.15l2.18,3.78l223.88,387.76
		c1.16,2.24,2.37,4.46,3.64,6.66c43.81,75.88,140.52,102.17,216.64,59.2c0.51-0.29,1.02-0.58,1.53-0.87l0.03,0.06l0.41,0.7
		c25.14-55.27,50.28-110.54,75.42-165.81C1538.35,1422.54,1506.56,1441.9,1470.25,1441.9z"/>
	<linearGradient id="SVGID_4_" gradientUnits="userSpaceOnUse" x1="687.929" y1="643.3513" x2="687.929" y2="610.5388">
		<stop  offset="0" style="stop-color:#0365F2"/>
		<stop  offset="0.2256" style="stop-color:#0A68F2"/>
		<stop  offset="0.5452" style="stop-color:#1C72F3"/>
		<stop  offset="0.9195" style="stop-color:#3A81F4"/>
		<stop  offset="1" style="stop-color:#4285F4"/>
	</linearGradient>
	<path class="st8" d="M687.93,626.94C687.93,626.94,687.93,626.95,687.93,626.94C687.93,626.94,687.93,626.94,687.93,626.94
		C687.93,626.95,687.93,626.94,687.93,626.94z"/>
	<linearGradient id="SVGID_5_" gradientUnits="userSpaceOnUse" x1="686.3309" y1="643.3994" x2="686.3309" y2="610.5869">
		<stop  offset="0" style="stop-color:#0365F2"/>
		<stop  offset="0.2256" style="stop-color:#0A68F2"/>
		<stop  offset="0.5452" style="stop-color:#1C72F3"/>
		<stop  offset="0.9195" style="stop-color:#3A81F4"/>
		<stop  offset="1" style="stop-color:#4285F4"/>
	</linearGradient>
	<path class="st9" d="M686.25,626.99c0.02,0,0.05,0,0.07,0h0.08c-0.03,0-0.06,0-0.08,0H686.25z"/>
	<linearGradient id="SVGID_6_" gradientUnits="userSpaceOnUse" x1="687.2089" y1="819.1765" x2="687.2089" y2="434.8015">
		<stop  offset="0" style="stop-color:#0365F2"/>
		<stop  offset="0.2256" style="stop-color:#0A68F2"/>
		<stop  offset="0.5452" style="stop-color:#1C72F3"/>
		<stop  offset="0.9195" style="stop-color:#3A81F4"/>
		<stop  offset="1" style="stop-color:#4285F4"/>
	</linearGradient>
	<path class="st10" d="M686.54,626.99h-0.06c0,0,0,0,0.01,0h0.02c0.46-0.02,0.93-0.03,1.39-0.04c0.01,0,0.02,0,0.03,0
		c0,0,0,0,0.01,0l0,0c0,0,0,0,0,0s0,0,0,0c-0.01,0-0.02,0-0.02,0C687.45,626.96,687,626.97,686.54,626.99z"/>
	<linearGradient id="SVGID_7_" gradientUnits="userSpaceOnUse" x1="688.631" y1="771.4763" x2="688.631" y2="482.4138">
		<stop  offset="0" style="stop-color:#0365F2"/>
		<stop  offset="0.2256" style="stop-color:#0A68F2"/>
		<stop  offset="0.5452" style="stop-color:#1C72F3"/>
		<stop  offset="0.9195" style="stop-color:#3A81F4"/>
		<stop  offset="1" style="stop-color:#4285F4"/>
	</linearGradient>
	<path class="st11" d="M688.16,626.94c-0.06,0-0.11,0-0.16,0v0h0.04C688.08,626.94,688.12,626.94,688.16,626.94
		c0.36-0.01,0.73-0.02,1.1-0.03C688.89,626.92,688.53,626.93,688.16,626.94z"/>
	<path class="st4" d="M550.03,654.55c0.24-0.09,0.47-0.18,0.71-0.27C550.5,654.37,550.26,654.46,550.03,654.55L550.03,654.55z"/>
	<path class="st4" d="M658.57,628.75c0.38-0.04,0.77-0.07,1.15-0.11c-0.59,0.05-1.18,0.11-1.77,0.17c-0.33,0.03-0.66,0.06-1,0.1
		C657.5,628.85,658.03,628.8,658.57,628.75z"/>
	<path class="st4" d="M678.67,627.29c-1.52,0.08-3.05,0.16-4.58,0.25C675.62,627.44,677.15,627.36,678.67,627.29z"/>
	<path class="st4" d="M678.85,627.28c3.02-0.15,6.03-0.26,9.05-0.34C684.88,627.03,681.87,627.14,678.85,627.28z"/>
	<path class="st4" d="M691.22,626.86c-1.02,0.02-2.04,0.04-3.06,0.08c-1.02,0.03-2.04,0.06-3.06,0.1c0.93-0.04,1.87-0.06,2.8-0.09
		c0.09-0.01,0.18-0.01,0.26-0.01c0.41-0.01,0.82-0.02,1.23-0.03C690,626.89,690.61,626.88,691.22,626.86z"/>
	<path class="st12" d="M695.02,626.8c-1.27,0.01-2.53,0.04-3.8,0.06C692.49,626.84,693.76,626.82,695.02,626.8z"/>
	<path class="st12" d="M687.99,626.95c-0.03,0-0.06,0-0.09,0c-0.93,0.02-1.86,0.06-2.8,0.09c-0.82,0.03-1.64,0.06-2.46,0.09
		c-0.08,0-0.15,0.01-0.22,0.01c-0.17,0.01-0.34,0.02-0.51,0.02c-0.25,0.01-0.5,0.02-0.76,0.03c-0.72,0.03-1.45,0.07-2.17,0.1
		c-0.9,0.04-1.79,0.09-2.69,0.14c-0.78,0.04-1.55,0.09-2.32,0.14c-0.67,0.04-1.34,0.08-2,0.13c-0.72,0.05-1.45,0.1-2.18,0.15
		c-1.02,0.07-2.04,0.15-3.06,0.23c-1.6,0.12-3.21,0.26-4.81,0.41c-0.13,0.01-0.26,0.02-0.4,0.04c-0.67,0.06-1.34,0.12-2.01,0.19
		c-0.52,0.05-1.03,0.1-1.55,0.15c-0.28,0.03-0.57,0.06-0.86,0.09c-1.72,0.17-3.45,0.36-5.17,0.56c-0.61,0.07-1.22,0.14-1.82,0.21
		c-3.65,0.44-7.29,0.92-10.93,1.45c-1.02,0.15-2.04,0.3-3.06,0.46c-0.97,0.15-1.94,0.3-2.91,0.46c-0.81,0.13-1.61,0.26-2.42,0.4
		c-0.43,0.07-0.86,0.14-1.29,0.22c-0.76,0.13-1.52,0.26-2.28,0.4c-0.29,0.05-0.58,0.1-0.88,0.16c-1.93,0.34-3.86,0.7-5.79,1.08
		c-0.82,0.16-1.65,0.32-2.47,0.48c-0.3,0.06-0.6,0.12-0.9,0.18c-0.8,0.16-1.6,0.32-2.4,0.49c-1.02,0.21-2.03,0.42-3.04,0.64
		c-0.93,0.2-1.86,0.4-2.78,0.61c-1.23,0.27-2.45,0.55-3.67,0.84c-0.89,0.2-1.77,0.42-2.66,0.63c-0.96,0.22-1.91,0.46-2.87,0.7
		c-1.23,0.3-2.46,0.61-3.69,0.93c-0.63,0.16-1.27,0.32-1.9,0.5c-0.36,0.09-0.71,0.18-1.06,0.28c-0.62,0.16-1.24,0.32-1.86,0.5
		c-0.35,0.09-0.7,0.18-1.04,0.28c-0.9,0.24-1.81,0.49-2.71,0.75c-0.72,0.2-1.44,0.4-2.15,0.61c-0.16,0.04-0.31,0.08-0.46,0.13
		c-0.21,0.06-0.42,0.12-0.63,0.18c-0.27,0.07-0.53,0.15-0.8,0.23c-0.59,0.17-1.19,0.34-1.78,0.52c-0.12,0.03-0.24,0.07-0.36,0.1
		c-0.78,0.23-1.55,0.46-2.33,0.7c-0.07,0.02-0.15,0.04-0.22,0.07c-0.2,0.06-0.41,0.12-0.61,0.18c-0.59,0.18-1.18,0.36-1.77,0.54
		c-0.42,0.13-0.84,0.26-1.26,0.39c-0.89,0.28-1.78,0.56-2.67,0.85c-1,0.32-2,0.64-3,0.97c-0.96,0.31-1.91,0.63-2.86,0.95
		c-0.04,0.01-0.09,0.03-0.13,0.04c-0.04,0.01-0.08,0.03-0.12,0.04c-0.12,0.04-0.25,0.08-0.37,0.13c-0.66,0.22-1.33,0.45-2,0.68
		c-0.23,0.08-0.46,0.16-0.7,0.24c-0.9,0.31-1.81,0.62-2.71,0.95c-0.05,0.02-0.1,0.03-0.14,0.05c-0.06,0.02-0.13,0.04-0.19,0.07
		c-0.6,0.21-1.2,0.42-1.8,0.64c-2.57,0.92-5.14,1.88-7.7,2.86c-0.24,0.09-0.48,0.18-0.71,0.27c-1.12,0.43-2.24,0.86-3.35,1.3
		c-0.61,0.24-1.22,0.48-1.83,0.72c-1.44,0.58-2.89,1.16-4.33,1.76c-0.3,0.12-0.6,0.25-0.9,0.38c-0.18,0.07-0.36,0.15-0.54,0.22
		c-0.71,0.29-1.41,0.59-2.12,0.89c-0.63,0.26-1.26,0.53-1.89,0.8c-0.6,0.26-1.2,0.52-1.8,0.78c-0.92,0.4-1.83,0.8-2.74,1.2
		c-0.84,0.37-1.69,0.75-2.53,1.13c-0.88,0.4-1.77,0.8-2.65,1.21c-0.09,0.04-0.18,0.08-0.27,0.12c-0.97,0.45-1.95,0.9-2.92,1.36
		c-0.62,0.29-1.24,0.58-1.86,0.88c-0.57,0.27-1.14,0.54-1.71,0.82c-3.36,1.62-6.71,3.28-10.04,5c-0.64,0.32-1.28,0.65-1.91,0.98
		c-1.38,0.72-2.76,1.44-4.14,2.18c-0.32,0.17-0.65,0.35-0.97,0.52c-0.82,0.44-1.64,0.89-2.46,1.34c-0.02,0.01-0.04,0.02-0.06,0.03
		c-2.03,1.07-4.06,2.17-6.07,3.3c49.46-28.07,102.24-45.02,155.42-51.61c0.5-0.06,1-0.12,1.49-0.18c0.4-0.05,0.8-0.1,1.2-0.14
		c0.68-0.08,1.37-0.16,2.06-0.23c0.22-0.02,0.44-0.05,0.66-0.07c0.25-0.02,0.49-0.05,0.74-0.08c0.22-0.02,0.43-0.05,0.65-0.07
		c0.22-0.03,0.44-0.05,0.66-0.07c0.14-0.02,0.28-0.03,0.42-0.04c0.24-0.02,0.49-0.05,0.73-0.07c0.04,0,0.09-0.01,0.14-0.01
		c0.29-0.03,0.57-0.06,0.86-0.09c0.21-0.02,0.42-0.04,0.62-0.06c0,0,0,0,0.01,0h0c0.03,0,0.06,0,0.09-0.01
		c0.06,0,0.11-0.01,0.17-0.02c0.14-0.02,0.28-0.03,0.43-0.04c0.15-0.02,0.3-0.03,0.46-0.04c0.9-0.08,1.8-0.17,2.69-0.25
		c0.82-0.07,1.64-0.14,2.45-0.2c0.56-0.05,1.12-0.09,1.68-0.14c0.22-0.02,0.44-0.04,0.66-0.05c0.38-0.03,0.76-0.06,1.13-0.08
		c0.09-0.01,0.18-0.01,0.28-0.02c0.32-0.02,0.64-0.05,0.96-0.07c0.07,0,0.14-0.01,0.21-0.02c0.15-0.01,0.3-0.02,0.45-0.03h0
		c0.26-0.02,0.51-0.04,0.76-0.06c0.14-0.01,0.28-0.02,0.42-0.02c0.12-0.01,0.24-0.02,0.36-0.02h0c0.77-0.05,1.54-0.1,2.3-0.14
		c0.29-0.02,0.58-0.04,0.86-0.05c0.04,0,0.08,0,0.12-0.01c0.02,0,0.04,0,0.06,0c0.08,0,0.15-0.01,0.22-0.01
		c0.07,0,0.14-0.01,0.21-0.01c0.1,0,0.19-0.01,0.28-0.02h0.02c0.02,0,0.03,0,0.04,0c0.12-0.01,0.25-0.01,0.37-0.02
		c0.05,0,0.1,0,0.15-0.01c0.12-0.01,0.23-0.01,0.34-0.02h0.04c0.62-0.04,1.24-0.07,1.86-0.1c0.01,0,0.02,0,0.03,0
		c0.05-0.01,0.1-0.01,0.15-0.01c0.13-0.01,0.27-0.01,0.4-0.02c0.03,0,0.06,0,0.1,0c0.1,0,0.2-0.01,0.3-0.01
		c0.38-0.02,0.77-0.04,1.15-0.05c0,0,0,0,0,0c0,0,0,0,0,0c0,0,0,0,0,0c0.1-0.01,0.2-0.01,0.3-0.01c0.02,0,0.04,0,0.06,0c0,0,0,0,0,0
		c0,0,0,0,0.01,0c0,0,0,0,0.01,0c0.01,0,0.02,0,0.03,0h0.01c0.03,0,0.06,0,0.08,0h0.04c0,0,0,0,0,0c0,0,0.01,0,0.02,0
		c0,0,0.01,0,0.02,0c0,0,0,0,0,0h0.05c0,0,0,0,0.01,0c0.01,0,0.02,0,0.02,0c0,0,0.01,0,0.01,0h0.06c0,0,0.01,0,0.01,0
		c0,0,0.01,0,0.01,0c0,0,0,0,0,0h0.06c0,0,0,0,0.01,0c0,0,0,0,0,0c0,0,0,0,0,0c0,0,0,0,0.01,0c0.02,0,0.04,0,0.07,0
		c0.06,0,0.11-0.01,0.17-0.01c0.1,0,0.2-0.01,0.3-0.01c0.03,0,0.06,0,0.09,0c0.02,0,0.05,0,0.07,0c0.31-0.01,0.62-0.02,0.94-0.04
		h0.07c0.08,0,0.16-0.01,0.25-0.01c0.02,0,0.04,0,0.06,0c0.02,0,0.04,0,0.06,0c0.04,0,0.08,0,0.12,0c0.06,0,0.13,0,0.2,0
		c0.12-0.01,0.25-0.01,0.37-0.02c0.2-0.01,0.4-0.01,0.59-0.02c0.06,0,0.12,0,0.17,0c0.05,0,0.11,0,0.16,0c0.01,0,0.02,0,0.04,0h0.05
		c0.29-0.01,0.58-0.02,0.88-0.03h0.09c0.01,0,0.02,0,0.03,0c0,0,0,0,0.01,0h0.06c0.46-0.02,0.93-0.03,1.39-0.04
		c0.01,0,0.02,0,0.04,0c0,0,0.01,0,0.02,0H687.99z"/>
	<path class="st12" d="M689.26,626.91c-0.37,0.01-0.73,0.02-1.1,0.03c-0.06,0-0.11,0-0.17,0c0,0,0.01,0,0.01,0h0.04
		c0.04,0,0.08,0,0.12,0C688.53,626.93,688.89,626.92,689.26,626.91z"/>
	<path class="st12" d="M1249.08,1158.66l-76.22-132.01l-13.78-23.87l-95.8-165.94C987.01,704.72,849.8,629.75,707.67,626.86
		c12.69,0.23,25.34,1.03,37.92,2.41c0.88,0.1,1.76,0.2,2.64,0.3c0.76,0.09,1.53,0.18,2.29,0.27
		c126.38,15.54,244.19,88.14,312.76,206.92l95.8,165.94l0.04,0.06l13.74,23.81l0.04,0.06l71.16,123.26l0.07,0.13L1249.08,1158.66z"
		/>
</g>
<path class="st0" d="M1643.45,1597.1"/>
<path class="st0" d="M1543.85,1703.5"/>
<linearGradient id="SVGID_8_" gradientUnits="userSpaceOnUse" x1="1801.9188" y1="1761.097" x2="1801.9188" y2="296.093">
	<stop  offset="0" style="stop-color:#E2AA13"/>
	<stop  offset="0.1863" style="stop-color:#DBA413"/>
	<stop  offset="0.4569" style="stop-color:#C89511"/>
	<stop  offset="0.7772" style="stop-color:#A87B10"/>
	<stop  offset="1" style="stop-color:#8E660E"/>
</linearGradient>
<path class="st13" d="M1904.85,876.9c66.45,22.78,132.89,45.56,199.34,68.34c-130.6,184.8-261.19,369.59-391.78,554.39v0
	c-32.72,46.3-65.44,92.59-98.15,138.89l0.04,0.03c-3.7,6.24-8.66,13.65-15.22,21.44c-3.33,3.96-7.07,8.02-11.27,12.06
	c-1.81,1.74-3.62,3.4-5.41,4.98c-6.18,4.81-13.39,10.12-21.55,15.64c0,0-5.33,3.6-10.76,7.02c-44.39,27.94-94.16,43.44-94.16,43.44
	c-23.72,7.38-65.61,17.96-118.88,17.96c-86.46,0-166.51-27.43-231.93-74.07c-4.25-3.03-8.44-6.14-12.57-9.33
	c12.21,8.53,25.04,15.92,38.33,22.13c8.7,4.06,17.59,7.62,26.64,10.67c37.62,13.34,78.13,20.6,120.32,20.6
	c76.63,0,147.66-23.94,206.04-64.75l-0.04-0.05c8.18-5.77,18.15-13.96,28-25.2c4.81-5.49,8.91-10.92,12.4-16.12
	c4.79-7.12,8.44-13.78,11.2-19.48h0c28.98-50.44,57.97-100.87,86.95-151.3c3.08-5.35,6.15-10.7,9.22-16.05
	c31.83-55.38,63.65-110.76,95.48-166.14c53.27-92.7,106.54-185.39,159.8-278.08c-67.03-18.19-134.05-36.38-201.08-54.56
	c157.81-214.43,315.63-428.86,473.44-643.28c117.34,2.76,234.69,5.52,352.03,8.28C2309.14,495.21,2107,686.06,1904.85,876.9z"/>
</svg>
